<?xml version="1.0" encoding="UTF-8"?><svg id="_Шар_1" xmlns="http://www.w3.org/2000/svg" viewBox="0 0 216.07 238.14"><defs><style>.cls-1{fill:#8493fb;}.cls-2{fill:#fff;}</style></defs><path class="cls-1" d="M216.07,238.14c-.23-7.71-.52-16.09-2.1-24.34-2.42-12.66-8.18-25.12-18.26-33.16-10.08-8.03-24.92-10.72-36.17-4.44-11.6,6.48-16.95,20.67-17.14,33.95-.42-10.69-.48-21.27-2.97-31.45-2.48-10.17-7.65-20.05-16.12-26.21-8.47-6.16-20.58-7.87-29.55-2.46-10.24,6.18-13.78,19.1-16.25,30.8-.73-47.8,1-94.73-5.15-141.01-1.11-8.36-2.53-16.85-6.44-24.32-3.91-7.47-10.73-13.87-19.06-15.23-9-1.47-18.16,3.24-24.15,10.11-5.99,6.87-9.31,15.64-11.96,24.37C-9.25,100.41,2.11,170.51,16.81,238.14h199.26Z"/><path class="cls-2" d="M30.99,208.63c-.41-5.27,7.3-8.11,13.78-8.51,6.48-.41,15,2.84,13.37,6.08-1.62,3.24-2.84,7.7-15,8.51-12.16.81-12.16-6.08-12.16-6.08Z"/><path class="cls-2" d="M70.31,206.6c0-4.46,6.08-6.08,14.59-6.08s11.76.64,11.55,5.18c-.2,4.54-6.28,8.19-13.98,8.19s-12.16-2.43-12.16-7.3Z"/><path d="M44.77,200.12c2.84,0,7.3,2.84,7.3,5.67s-3.24,8.11-6.89,7.7c-3.65-.41-6.44-3.75-5.65-6.94.79-3.19,2.01-6.44,5.25-6.44Z"/><path d="M77.6,206.6c0-3.24,3.24-7.3,7.3-7.3s6.89,3.24,6.89,6.08c0,4.07-3.03,8.79-6.99,8.25-3.96-.55-7.2-3.38-7.2-7.03Z"/></svg>